<mxfile host="app.diagrams.net" modified="2023-05-07T06:05:43.107Z" agent="Mozilla/5.0 (Windows NT 10.0; Win64; x64) AppleWebKit/537.36 (KHTML, like Gecko) Chrome/113.0.0.0 Safari/537.36" etag="IQ8Djs5IhvVbJzfE-0YV" version="21.2.9" type="github">
  <diagram name="Page-1" id="2YBvvXClWsGukQMizWep">
    <mxGraphModel dx="1430" dy="770" grid="1" gridSize="10" guides="1" tooltips="1" connect="1" arrows="1" fold="1" page="1" pageScale="1" pageWidth="850" pageHeight="1100" math="0" shadow="0">
      <root>
        <mxCell id="0" />
        <mxCell id="1" parent="0" />
        <mxCell id="aM9ryv3xv72pqoxQDRHE-1" value="WebAdmin" style="shape=umlLifeline;perimeter=lifelinePerimeter;whiteSpace=wrap;html=1;container=0;dropTarget=0;collapsible=0;recursiveResize=0;outlineConnect=0;portConstraint=eastwest;newEdgeStyle={&quot;edgeStyle&quot;:&quot;elbowEdgeStyle&quot;,&quot;elbow&quot;:&quot;vertical&quot;,&quot;curved&quot;:0,&quot;rounded&quot;:0};" parent="1" vertex="1">
          <mxGeometry x="40" y="40" width="100" height="670" as="geometry" />
        </mxCell>
        <mxCell id="aM9ryv3xv72pqoxQDRHE-2" value="" style="html=1;points=[];perimeter=orthogonalPerimeter;outlineConnect=0;targetShapes=umlLifeline;portConstraint=eastwest;newEdgeStyle={&quot;edgeStyle&quot;:&quot;elbowEdgeStyle&quot;,&quot;elbow&quot;:&quot;vertical&quot;,&quot;curved&quot;:0,&quot;rounded&quot;:0};" parent="aM9ryv3xv72pqoxQDRHE-1" vertex="1">
          <mxGeometry x="45" y="70" width="10" height="510" as="geometry" />
        </mxCell>
        <mxCell id="aM9ryv3xv72pqoxQDRHE-3" value="dispatch" style="html=1;verticalAlign=bottom;startArrow=oval;endArrow=block;startSize=8;edgeStyle=elbowEdgeStyle;elbow=vertical;curved=0;rounded=0;" parent="aM9ryv3xv72pqoxQDRHE-1" target="aM9ryv3xv72pqoxQDRHE-2" edge="1">
          <mxGeometry relative="1" as="geometry">
            <mxPoint x="-15" y="70" as="sourcePoint" />
          </mxGeometry>
        </mxCell>
        <mxCell id="aM9ryv3xv72pqoxQDRHE-5" value="WeChat" style="shape=umlLifeline;perimeter=lifelinePerimeter;whiteSpace=wrap;html=1;container=0;dropTarget=0;collapsible=0;recursiveResize=0;outlineConnect=0;portConstraint=eastwest;newEdgeStyle={&quot;edgeStyle&quot;:&quot;elbowEdgeStyle&quot;,&quot;elbow&quot;:&quot;vertical&quot;,&quot;curved&quot;:0,&quot;rounded&quot;:0};" parent="1" vertex="1">
          <mxGeometry x="170" y="40" width="100" height="650" as="geometry" />
        </mxCell>
        <mxCell id="aM9ryv3xv72pqoxQDRHE-6" value="" style="html=1;points=[];perimeter=orthogonalPerimeter;outlineConnect=0;targetShapes=umlLifeline;portConstraint=eastwest;newEdgeStyle={&quot;edgeStyle&quot;:&quot;elbowEdgeStyle&quot;,&quot;elbow&quot;:&quot;vertical&quot;,&quot;curved&quot;:0,&quot;rounded&quot;:0};" parent="aM9ryv3xv72pqoxQDRHE-5" vertex="1">
          <mxGeometry x="45" y="133" width="10" height="97" as="geometry" />
        </mxCell>
        <mxCell id="rhNAa3XnDCW6CMJi3sc1-9" value="" style="html=1;points=[];perimeter=orthogonalPerimeter;outlineConnect=0;targetShapes=umlLifeline;portConstraint=eastwest;newEdgeStyle={&quot;edgeStyle&quot;:&quot;elbowEdgeStyle&quot;,&quot;elbow&quot;:&quot;vertical&quot;,&quot;curved&quot;:0,&quot;rounded&quot;:0};" vertex="1" parent="aM9ryv3xv72pqoxQDRHE-5">
          <mxGeometry x="45" y="246" width="10" height="234" as="geometry" />
        </mxCell>
        <mxCell id="aM9ryv3xv72pqoxQDRHE-7" value="/auth/miniapp/qrcode?scene=xx" style="html=1;verticalAlign=bottom;endArrow=block;edgeStyle=elbowEdgeStyle;elbow=vertical;curved=0;rounded=0;" parent="1" source="aM9ryv3xv72pqoxQDRHE-2" target="vACXPowqRHTn4efOU8du-2" edge="1">
          <mxGeometry x="-0.0918" relative="1" as="geometry">
            <mxPoint x="195" y="130" as="sourcePoint" />
            <Array as="points">
              <mxPoint x="180" y="120" />
            </Array>
            <mxPoint as="offset" />
          </mxGeometry>
        </mxCell>
        <mxCell id="aM9ryv3xv72pqoxQDRHE-8" value="return imageData:QR" style="html=1;verticalAlign=bottom;endArrow=open;dashed=1;endSize=8;edgeStyle=elbowEdgeStyle;elbow=vertical;curved=0;rounded=0;" parent="1" source="vACXPowqRHTn4efOU8du-2" target="aM9ryv3xv72pqoxQDRHE-2" edge="1">
          <mxGeometry relative="1" as="geometry">
            <mxPoint x="195" y="205" as="targetPoint" />
            <Array as="points">
              <mxPoint x="180" y="150" />
              <mxPoint x="190" y="280" />
            </Array>
          </mxGeometry>
        </mxCell>
        <mxCell id="vACXPowqRHTn4efOU8du-1" value="service-auth" style="shape=umlLifeline;perimeter=lifelinePerimeter;whiteSpace=wrap;html=1;container=0;dropTarget=0;collapsible=0;recursiveResize=0;outlineConnect=0;portConstraint=eastwest;newEdgeStyle={&quot;edgeStyle&quot;:&quot;elbowEdgeStyle&quot;,&quot;elbow&quot;:&quot;vertical&quot;,&quot;curved&quot;:0,&quot;rounded&quot;:0};" parent="1" vertex="1">
          <mxGeometry x="408" y="40" width="100" height="620" as="geometry" />
        </mxCell>
        <mxCell id="vACXPowqRHTn4efOU8du-2" value="" style="html=1;points=[];perimeter=orthogonalPerimeter;outlineConnect=0;targetShapes=umlLifeline;portConstraint=eastwest;newEdgeStyle={&quot;edgeStyle&quot;:&quot;elbowEdgeStyle&quot;,&quot;elbow&quot;:&quot;vertical&quot;,&quot;curved&quot;:0,&quot;rounded&quot;:0};" parent="vACXPowqRHTn4efOU8du-1" vertex="1">
          <mxGeometry x="45" y="70" width="10" height="50" as="geometry" />
        </mxCell>
        <mxCell id="rhNAa3XnDCW6CMJi3sc1-2" value="" style="html=1;points=[];perimeter=orthogonalPerimeter;outlineConnect=0;targetShapes=umlLifeline;portConstraint=eastwest;newEdgeStyle={&quot;edgeStyle&quot;:&quot;elbowEdgeStyle&quot;,&quot;elbow&quot;:&quot;vertical&quot;,&quot;curved&quot;:0,&quot;rounded&quot;:0};" vertex="1" parent="vACXPowqRHTn4efOU8du-1">
          <mxGeometry x="45" y="516" width="10" height="50" as="geometry" />
        </mxCell>
        <mxCell id="rhNAa3XnDCW6CMJi3sc1-5" value="" style="html=1;points=[];perimeter=orthogonalPerimeter;outlineConnect=0;targetShapes=umlLifeline;portConstraint=eastwest;newEdgeStyle={&quot;edgeStyle&quot;:&quot;elbowEdgeStyle&quot;,&quot;elbow&quot;:&quot;vertical&quot;,&quot;curved&quot;:0,&quot;rounded&quot;:0};fillColor=#f8cecc;strokeColor=#b85450;" vertex="1" parent="vACXPowqRHTn4efOU8du-1">
          <mxGeometry x="45" y="148" width="10" height="72" as="geometry" />
        </mxCell>
        <mxCell id="rhNAa3XnDCW6CMJi3sc1-11" value="" style="html=1;points=[];perimeter=orthogonalPerimeter;outlineConnect=0;targetShapes=umlLifeline;portConstraint=eastwest;newEdgeStyle={&quot;edgeStyle&quot;:&quot;elbowEdgeStyle&quot;,&quot;elbow&quot;:&quot;vertical&quot;,&quot;curved&quot;:0,&quot;rounded&quot;:0};" vertex="1" parent="vACXPowqRHTn4efOU8du-1">
          <mxGeometry x="45" y="258.5" width="10" height="35" as="geometry" />
        </mxCell>
        <mxCell id="rhNAa3XnDCW6CMJi3sc1-15" value="" style="html=1;points=[];perimeter=orthogonalPerimeter;outlineConnect=0;targetShapes=umlLifeline;portConstraint=eastwest;newEdgeStyle={&quot;edgeStyle&quot;:&quot;elbowEdgeStyle&quot;,&quot;elbow&quot;:&quot;vertical&quot;,&quot;curved&quot;:0,&quot;rounded&quot;:0};fillColor=#f8cecc;strokeColor=#b85450;" vertex="1" parent="vACXPowqRHTn4efOU8du-1">
          <mxGeometry x="45" y="356" width="10" height="54" as="geometry" />
        </mxCell>
        <mxCell id="rhNAa3XnDCW6CMJi3sc1-20" value="" style="html=1;points=[];perimeter=orthogonalPerimeter;outlineConnect=0;targetShapes=umlLifeline;portConstraint=eastwest;newEdgeStyle={&quot;edgeStyle&quot;:&quot;elbowEdgeStyle&quot;,&quot;elbow&quot;:&quot;vertical&quot;,&quot;curved&quot;:0,&quot;rounded&quot;:0};" vertex="1" parent="vACXPowqRHTn4efOU8du-1">
          <mxGeometry x="50" y="170" width="10" height="40" as="geometry" />
        </mxCell>
        <mxCell id="rhNAa3XnDCW6CMJi3sc1-21" value="token" style="html=1;align=left;spacingLeft=2;endArrow=block;rounded=0;edgeStyle=orthogonalEdgeStyle;curved=0;rounded=0;" edge="1" target="rhNAa3XnDCW6CMJi3sc1-20" parent="vACXPowqRHTn4efOU8du-1" source="rhNAa3XnDCW6CMJi3sc1-5">
          <mxGeometry relative="1" as="geometry">
            <mxPoint x="90" y="123" as="sourcePoint" />
            <Array as="points">
              <mxPoint x="75" y="160" />
              <mxPoint x="75" y="180" />
            </Array>
          </mxGeometry>
        </mxCell>
        <mxCell id="rhNAa3XnDCW6CMJi3sc1-26" value="" style="html=1;points=[];perimeter=orthogonalPerimeter;outlineConnect=0;targetShapes=umlLifeline;portConstraint=eastwest;newEdgeStyle={&quot;edgeStyle&quot;:&quot;elbowEdgeStyle&quot;,&quot;elbow&quot;:&quot;vertical&quot;,&quot;curved&quot;:0,&quot;rounded&quot;:0};fillColor=#fff2cc;strokeColor=#d6b656;" vertex="1" parent="vACXPowqRHTn4efOU8du-1">
          <mxGeometry x="45" y="440" width="10" height="35" as="geometry" />
        </mxCell>
        <mxCell id="vACXPowqRHTn4efOU8du-3" value="service-miniapp" style="shape=umlLifeline;perimeter=lifelinePerimeter;whiteSpace=wrap;html=1;container=0;dropTarget=0;collapsible=0;recursiveResize=0;outlineConnect=0;portConstraint=eastwest;newEdgeStyle={&quot;edgeStyle&quot;:&quot;elbowEdgeStyle&quot;,&quot;elbow&quot;:&quot;vertical&quot;,&quot;curved&quot;:0,&quot;rounded&quot;:0};" parent="1" vertex="1">
          <mxGeometry x="523" y="40" width="100" height="580" as="geometry" />
        </mxCell>
        <mxCell id="vACXPowqRHTn4efOU8du-4" value="" style="html=1;points=[];perimeter=orthogonalPerimeter;outlineConnect=0;targetShapes=umlLifeline;portConstraint=eastwest;newEdgeStyle={&quot;edgeStyle&quot;:&quot;elbowEdgeStyle&quot;,&quot;elbow&quot;:&quot;vertical&quot;,&quot;curved&quot;:0,&quot;rounded&quot;:0};" parent="vACXPowqRHTn4efOU8du-3" vertex="1">
          <mxGeometry x="45" y="80" width="10" height="30" as="geometry" />
        </mxCell>
        <mxCell id="vACXPowqRHTn4efOU8du-5" value="service-base" style="shape=umlLifeline;perimeter=lifelinePerimeter;whiteSpace=wrap;html=1;container=0;dropTarget=0;collapsible=0;recursiveResize=0;outlineConnect=0;portConstraint=eastwest;newEdgeStyle={&quot;edgeStyle&quot;:&quot;elbowEdgeStyle&quot;,&quot;elbow&quot;:&quot;vertical&quot;,&quot;curved&quot;:0,&quot;rounded&quot;:0};" parent="1" vertex="1">
          <mxGeometry x="643" y="40" width="100" height="570" as="geometry" />
        </mxCell>
        <mxCell id="vACXPowqRHTn4efOU8du-6" value="" style="html=1;points=[];perimeter=orthogonalPerimeter;outlineConnect=0;targetShapes=umlLifeline;portConstraint=eastwest;newEdgeStyle={&quot;edgeStyle&quot;:&quot;elbowEdgeStyle&quot;,&quot;elbow&quot;:&quot;vertical&quot;,&quot;curved&quot;:0,&quot;rounded&quot;:0};" parent="vACXPowqRHTn4efOU8du-5" vertex="1">
          <mxGeometry x="45" y="180" width="10" height="30" as="geometry" />
        </mxCell>
        <mxCell id="rhNAa3XnDCW6CMJi3sc1-29" value="" style="html=1;points=[];perimeter=orthogonalPerimeter;outlineConnect=0;targetShapes=umlLifeline;portConstraint=eastwest;newEdgeStyle={&quot;edgeStyle&quot;:&quot;elbowEdgeStyle&quot;,&quot;elbow&quot;:&quot;vertical&quot;,&quot;curved&quot;:0,&quot;rounded&quot;:0};fillColor=#f8cecc;strokeColor=#b85450;" vertex="1" parent="vACXPowqRHTn4efOU8du-5">
          <mxGeometry x="45" y="360" width="10" height="40" as="geometry" />
        </mxCell>
        <mxCell id="vACXPowqRHTn4efOU8du-7" value="/auth/miniapp/qrcode/authQuery?scene=xx" style="html=1;verticalAlign=bottom;endArrow=block;edgeStyle=elbowEdgeStyle;elbow=vertical;curved=0;rounded=0;" parent="1" target="rhNAa3XnDCW6CMJi3sc1-2" edge="1">
          <mxGeometry width="80" relative="1" as="geometry">
            <mxPoint x="95" y="566" as="sourcePoint" />
            <mxPoint x="210" y="565.5" as="targetPoint" />
            <Array as="points">
              <mxPoint x="360" y="566" />
            </Array>
            <mxPoint as="offset" />
          </mxGeometry>
        </mxCell>
        <mxCell id="rhNAa3XnDCW6CMJi3sc1-1" value="return&amp;nbsp;jwtTokenMap" style="html=1;verticalAlign=bottom;endArrow=open;dashed=1;endSize=8;edgeStyle=elbowEdgeStyle;elbow=vertical;curved=0;rounded=0;" edge="1" parent="1" source="rhNAa3XnDCW6CMJi3sc1-2">
          <mxGeometry x="0.0016" relative="1" as="geometry">
            <mxPoint x="95" y="596" as="targetPoint" />
            <Array as="points">
              <mxPoint x="185" y="596" />
              <mxPoint x="195" y="726" />
            </Array>
            <mxPoint x="410" y="596" as="sourcePoint" />
            <mxPoint as="offset" />
          </mxGeometry>
        </mxCell>
        <mxCell id="rhNAa3XnDCW6CMJi3sc1-3" value="扫码" style="html=1;verticalAlign=bottom;endArrow=block;edgeStyle=elbowEdgeStyle;elbow=vertical;curved=0;rounded=0;" edge="1" parent="1" target="aM9ryv3xv72pqoxQDRHE-6">
          <mxGeometry width="80" relative="1" as="geometry">
            <mxPoint x="95" y="183" as="sourcePoint" />
            <mxPoint x="410" y="313" as="targetPoint" />
            <Array as="points">
              <mxPoint x="180" y="183" />
            </Array>
            <mxPoint as="offset" />
          </mxGeometry>
        </mxCell>
        <mxCell id="rhNAa3XnDCW6CMJi3sc1-4" value="return JWT+RealAuth" style="html=1;verticalAlign=bottom;endArrow=open;dashed=1;endSize=8;edgeStyle=elbowEdgeStyle;elbow=vertical;curved=0;rounded=0;" edge="1" parent="1" source="rhNAa3XnDCW6CMJi3sc1-5" target="aM9ryv3xv72pqoxQDRHE-6">
          <mxGeometry x="0.1282" y="7" relative="1" as="geometry">
            <mxPoint x="370" y="213" as="sourcePoint" />
            <mxPoint x="290" y="213" as="targetPoint" />
            <Array as="points">
              <mxPoint x="320" y="250" />
            </Array>
            <mxPoint as="offset" />
          </mxGeometry>
        </mxCell>
        <mxCell id="rhNAa3XnDCW6CMJi3sc1-6" value="/auth/miniapp/login?wxCode=xx" style="html=1;verticalAlign=bottom;endArrow=block;edgeStyle=elbowEdgeStyle;elbow=vertical;curved=0;rounded=0;" edge="1" parent="1" source="aM9ryv3xv72pqoxQDRHE-6" target="rhNAa3XnDCW6CMJi3sc1-5">
          <mxGeometry x="-0.0016" width="80" relative="1" as="geometry">
            <mxPoint x="230" y="193" as="sourcePoint" />
            <mxPoint x="350" y="193" as="targetPoint" />
            <Array as="points">
              <mxPoint x="315" y="193" />
            </Array>
            <mxPoint as="offset" />
          </mxGeometry>
        </mxCell>
        <mxCell id="rhNAa3XnDCW6CMJi3sc1-7" value="USTB-微认证" style="shape=umlLifeline;perimeter=lifelinePerimeter;whiteSpace=wrap;html=1;container=0;dropTarget=0;collapsible=0;recursiveResize=0;outlineConnect=0;portConstraint=eastwest;newEdgeStyle={&quot;edgeStyle&quot;:&quot;elbowEdgeStyle&quot;,&quot;elbow&quot;:&quot;vertical&quot;,&quot;curved&quot;:0,&quot;rounded&quot;:0};" vertex="1" parent="1">
          <mxGeometry x="773" y="40" width="100" height="610" as="geometry" />
        </mxCell>
        <mxCell id="rhNAa3XnDCW6CMJi3sc1-8" value="" style="html=1;points=[];perimeter=orthogonalPerimeter;outlineConnect=0;targetShapes=umlLifeline;portConstraint=eastwest;newEdgeStyle={&quot;edgeStyle&quot;:&quot;elbowEdgeStyle&quot;,&quot;elbow&quot;:&quot;vertical&quot;,&quot;curved&quot;:0,&quot;rounded&quot;:0};" vertex="1" parent="rhNAa3XnDCW6CMJi3sc1-7">
          <mxGeometry x="45" y="306" width="10" height="40" as="geometry" />
        </mxCell>
        <mxCell id="rhNAa3XnDCW6CMJi3sc1-10" value="/auth/school/authUrl?returnUrl=xx" style="html=1;verticalAlign=bottom;endArrow=block;edgeStyle=elbowEdgeStyle;elbow=vertical;curved=0;rounded=0;" edge="1" parent="1" source="rhNAa3XnDCW6CMJi3sc1-9" target="rhNAa3XnDCW6CMJi3sc1-11">
          <mxGeometry x="-0.0037" width="80" relative="1" as="geometry">
            <mxPoint x="225" y="236" as="sourcePoint" />
            <mxPoint x="420" y="236" as="targetPoint" />
            <Array as="points">
              <mxPoint x="300" y="306" />
              <mxPoint x="315" y="236" />
            </Array>
            <mxPoint as="offset" />
          </mxGeometry>
        </mxCell>
        <mxCell id="rhNAa3XnDCW6CMJi3sc1-12" value="return AuthUrl" style="html=1;verticalAlign=bottom;endArrow=open;dashed=1;endSize=8;edgeStyle=elbowEdgeStyle;elbow=vertical;curved=0;rounded=0;" edge="1" parent="1" source="rhNAa3XnDCW6CMJi3sc1-11" target="rhNAa3XnDCW6CMJi3sc1-9">
          <mxGeometry x="-0.0665" y="7" relative="1" as="geometry">
            <mxPoint x="425" y="326" as="sourcePoint" />
            <mxPoint x="230" y="326" as="targetPoint" />
            <Array as="points">
              <mxPoint x="325" y="326" />
            </Array>
            <mxPoint as="offset" />
          </mxGeometry>
        </mxCell>
        <mxCell id="rhNAa3XnDCW6CMJi3sc1-13" value="authUrl带参+scene" style="html=1;verticalAlign=bottom;endArrow=block;edgeStyle=elbowEdgeStyle;elbow=vertical;curved=0;rounded=0;" edge="1" parent="1" source="rhNAa3XnDCW6CMJi3sc1-9" target="rhNAa3XnDCW6CMJi3sc1-8">
          <mxGeometry x="-0.0037" width="80" relative="1" as="geometry">
            <mxPoint x="230" y="356" as="sourcePoint" />
            <mxPoint x="425" y="356" as="targetPoint" />
            <Array as="points">
              <mxPoint x="305" y="356" />
              <mxPoint x="320" y="286" />
            </Array>
            <mxPoint as="offset" />
          </mxGeometry>
        </mxCell>
        <mxCell id="rhNAa3XnDCW6CMJi3sc1-14" value="redirect：/auth/school/authUrl/callback" style="html=1;verticalAlign=bottom;endArrow=open;dashed=1;endSize=8;edgeStyle=elbowEdgeStyle;elbow=vertical;curved=0;rounded=0;" edge="1" parent="1" source="rhNAa3XnDCW6CMJi3sc1-8" target="rhNAa3XnDCW6CMJi3sc1-9">
          <mxGeometry x="-0.0665" y="7" relative="1" as="geometry">
            <mxPoint x="665" y="376" as="sourcePoint" />
            <mxPoint x="470" y="376" as="targetPoint" />
            <Array as="points">
              <mxPoint x="570" y="376" />
            </Array>
            <mxPoint as="offset" />
          </mxGeometry>
        </mxCell>
        <mxCell id="rhNAa3XnDCW6CMJi3sc1-16" value="/auth/school/authUrl/callback" style="html=1;verticalAlign=bottom;endArrow=block;edgeStyle=elbowEdgeStyle;elbow=vertical;curved=0;rounded=0;" edge="1" parent="1" source="rhNAa3XnDCW6CMJi3sc1-9" target="rhNAa3XnDCW6CMJi3sc1-15">
          <mxGeometry x="-0.0027" width="80" relative="1" as="geometry">
            <mxPoint x="230" y="406" as="sourcePoint" />
            <mxPoint x="415" y="406" as="targetPoint" />
            <Array as="points">
              <mxPoint x="295" y="406" />
              <mxPoint x="310" y="336" />
            </Array>
            <mxPoint as="offset" />
          </mxGeometry>
        </mxCell>
        <mxCell id="rhNAa3XnDCW6CMJi3sc1-17" value="return code+scene" style="html=1;verticalAlign=bottom;endArrow=open;dashed=1;endSize=8;edgeStyle=elbowEdgeStyle;elbow=vertical;curved=0;rounded=0;" edge="1" parent="1" source="rhNAa3XnDCW6CMJi3sc1-15" target="rhNAa3XnDCW6CMJi3sc1-9">
          <mxGeometry x="-0.0665" y="7" relative="1" as="geometry">
            <mxPoint x="415" y="426" as="sourcePoint" />
            <mxPoint x="250" y="426" as="targetPoint" />
            <Array as="points">
              <mxPoint x="420" y="440" />
              <mxPoint x="320" y="426" />
            </Array>
            <mxPoint as="offset" />
          </mxGeometry>
        </mxCell>
        <mxCell id="rhNAa3XnDCW6CMJi3sc1-22" value="getUserInfoByBaseIndividualId" style="html=1;verticalAlign=bottom;endArrow=block;edgeStyle=elbowEdgeStyle;elbow=vertical;curved=0;rounded=0;" edge="1" parent="1" source="rhNAa3XnDCW6CMJi3sc1-20" target="vACXPowqRHTn4efOU8du-6">
          <mxGeometry x="-0.0027" width="80" relative="1" as="geometry">
            <mxPoint x="483" y="230" as="sourcePoint" />
            <mxPoint x="678" y="230" as="targetPoint" />
            <Array as="points">
              <mxPoint x="553" y="230" />
              <mxPoint x="568" y="160" />
            </Array>
            <mxPoint as="offset" />
          </mxGeometry>
        </mxCell>
        <mxCell id="rhNAa3XnDCW6CMJi3sc1-25" value="return&amp;nbsp;UserInfoVo&amp;nbsp;" style="html=1;verticalAlign=bottom;endArrow=open;dashed=1;endSize=8;edgeStyle=elbowEdgeStyle;elbow=vertical;curved=0;rounded=0;" edge="1" parent="1" source="vACXPowqRHTn4efOU8du-6" target="rhNAa3XnDCW6CMJi3sc1-20">
          <mxGeometry x="0.1364" y="20" relative="1" as="geometry">
            <mxPoint x="670.5" y="240" as="sourcePoint" />
            <mxPoint x="475.5" y="240" as="targetPoint" />
            <Array as="points">
              <mxPoint x="570.5" y="240" />
            </Array>
            <mxPoint as="offset" />
          </mxGeometry>
        </mxCell>
        <mxCell id="rhNAa3XnDCW6CMJi3sc1-27" value="&lt;font style=&quot;font-size: 10px;&quot;&gt;/auth/miniapp/qrcode/authPass?scene=xx&lt;/font&gt;" style="html=1;verticalAlign=bottom;endArrow=block;edgeStyle=elbowEdgeStyle;elbow=vertical;curved=0;rounded=0;" edge="1" parent="1" target="rhNAa3XnDCW6CMJi3sc1-26" source="rhNAa3XnDCW6CMJi3sc1-9">
          <mxGeometry x="-0.0027" width="80" relative="1" as="geometry">
            <mxPoint x="225" y="490" as="sourcePoint" />
            <mxPoint x="448" y="490" as="targetPoint" />
            <Array as="points">
              <mxPoint x="328" y="490" />
              <mxPoint x="343" y="420" />
            </Array>
            <mxPoint as="offset" />
          </mxGeometry>
        </mxCell>
        <mxCell id="rhNAa3XnDCW6CMJi3sc1-28" value="return" style="html=1;verticalAlign=bottom;endArrow=open;dashed=1;endSize=8;edgeStyle=elbowEdgeStyle;elbow=vertical;curved=0;rounded=0;" edge="1" parent="1" source="rhNAa3XnDCW6CMJi3sc1-26" target="rhNAa3XnDCW6CMJi3sc1-9">
          <mxGeometry x="-0.0665" y="7" relative="1" as="geometry">
            <mxPoint x="448" y="510" as="sourcePoint" />
            <mxPoint x="225" y="510" as="targetPoint" />
            <Array as="points">
              <mxPoint x="353" y="510" />
            </Array>
            <mxPoint as="offset" />
          </mxGeometry>
        </mxCell>
        <mxCell id="rhNAa3XnDCW6CMJi3sc1-30" value="&lt;font style=&quot;font-size: 11px;&quot;&gt;getOrInitUserInfoByStuBk:ustbNo&lt;/font&gt;" style="html=1;verticalAlign=bottom;endArrow=block;edgeStyle=elbowEdgeStyle;elbow=vertical;curved=0;rounded=0;" edge="1" parent="1" source="rhNAa3XnDCW6CMJi3sc1-15" target="rhNAa3XnDCW6CMJi3sc1-29">
          <mxGeometry x="-0.0027" width="80" relative="1" as="geometry">
            <mxPoint x="463" y="400" as="sourcePoint" />
            <mxPoint x="683" y="400" as="targetPoint" />
            <Array as="points">
              <mxPoint x="600" y="410" />
              <mxPoint x="548" y="400" />
              <mxPoint x="563" y="330" />
            </Array>
            <mxPoint as="offset" />
          </mxGeometry>
        </mxCell>
        <mxCell id="rhNAa3XnDCW6CMJi3sc1-31" value="return&amp;nbsp;UserInfoVo&amp;nbsp;" style="html=1;verticalAlign=bottom;endArrow=open;dashed=1;endSize=8;edgeStyle=elbowEdgeStyle;elbow=vertical;curved=0;rounded=0;" edge="1" parent="1" source="rhNAa3XnDCW6CMJi3sc1-29">
          <mxGeometry x="0.1364" y="20" relative="1" as="geometry">
            <mxPoint x="683" y="430" as="sourcePoint" />
            <mxPoint x="463" y="430" as="targetPoint" />
            <Array as="points">
              <mxPoint x="565.5" y="430" />
            </Array>
            <mxPoint as="offset" />
          </mxGeometry>
        </mxCell>
      </root>
    </mxGraphModel>
  </diagram>
</mxfile>
